<mxfile host="Electron" modified="2023-04-22T06:03:33.489Z" agent="Mozilla/5.0 (Windows NT 10.0; Win64; x64) AppleWebKit/537.36 (KHTML, like Gecko) draw.io/21.2.1 Chrome/112.0.5615.87 Electron/24.1.2 Safari/537.36" etag="Y0UNoY8KM96Ne0idyaDJ" version="21.2.1" type="device">
  <diagram name="Page-1" id="zHE7dzKNxdLfFaWkAdhi">
    <mxGraphModel dx="2200" dy="2410" grid="1" gridSize="10" guides="1" tooltips="1" connect="1" arrows="1" fold="1" page="1" pageScale="1" pageWidth="850" pageHeight="1100" math="0" shadow="0">
      <root>
        <mxCell id="0" />
        <mxCell id="1" parent="0" />
        <mxCell id="DHTgpNYXtuhxtt-2HGvQ-1" value="&lt;font style=&quot;font-size: 20px;&quot;&gt;Questions&lt;/font&gt;" style="rounded=0;whiteSpace=wrap;html=1;" parent="1" vertex="1">
          <mxGeometry x="900" y="610" width="180" height="90" as="geometry" />
        </mxCell>
        <mxCell id="DHTgpNYXtuhxtt-2HGvQ-2" value="" style="endArrow=none;html=1;rounded=0;exitX=0.5;exitY=0;exitDx=0;exitDy=0;entryX=1;entryY=1;entryDx=0;entryDy=0;" parent="1" source="DHTgpNYXtuhxtt-2HGvQ-1" target="DHTgpNYXtuhxtt-2HGvQ-3" edge="1">
          <mxGeometry width="50" height="50" relative="1" as="geometry">
            <mxPoint x="1010" y="670" as="sourcePoint" />
            <mxPoint x="890" y="520" as="targetPoint" />
          </mxGeometry>
        </mxCell>
        <mxCell id="DHTgpNYXtuhxtt-2HGvQ-3" value="&lt;font style=&quot;font-size: 18px;&quot;&gt;&lt;u&gt;ID&lt;/u&gt;&lt;/font&gt;" style="ellipse;whiteSpace=wrap;html=1;" parent="1" vertex="1">
          <mxGeometry x="710" y="450" width="120" height="80" as="geometry" />
        </mxCell>
        <mxCell id="DHTgpNYXtuhxtt-2HGvQ-4" value="" style="endArrow=none;html=1;rounded=0;exitX=0.5;exitY=0;exitDx=0;exitDy=0;entryX=0.663;entryY=0.975;entryDx=0;entryDy=0;entryPerimeter=0;" parent="1" source="DHTgpNYXtuhxtt-2HGvQ-1" target="DHTgpNYXtuhxtt-2HGvQ-5" edge="1">
          <mxGeometry width="50" height="50" relative="1" as="geometry">
            <mxPoint x="1063" y="590" as="sourcePoint" />
            <mxPoint x="1050" y="520" as="targetPoint" />
          </mxGeometry>
        </mxCell>
        <mxCell id="DHTgpNYXtuhxtt-2HGvQ-5" value="&lt;font style=&quot;font-size: 18px;&quot;&gt;Question&lt;/font&gt;" style="ellipse;whiteSpace=wrap;html=1;" parent="1" vertex="1">
          <mxGeometry x="840" y="430" width="120" height="80" as="geometry" />
        </mxCell>
        <mxCell id="DHTgpNYXtuhxtt-2HGvQ-6" value="" style="endArrow=none;html=1;rounded=0;exitX=0.5;exitY=0;exitDx=0;exitDy=0;entryX=0.29;entryY=0.959;entryDx=0;entryDy=0;entryPerimeter=0;" parent="1" source="DHTgpNYXtuhxtt-2HGvQ-1" target="DHTgpNYXtuhxtt-2HGvQ-7" edge="1">
          <mxGeometry width="50" height="50" relative="1" as="geometry">
            <mxPoint x="1000" y="620" as="sourcePoint" />
            <mxPoint x="1150" y="560" as="targetPoint" />
          </mxGeometry>
        </mxCell>
        <mxCell id="DHTgpNYXtuhxtt-2HGvQ-7" value="&lt;font style=&quot;font-size: 18px;&quot;&gt;Answer&lt;/font&gt;" style="ellipse;whiteSpace=wrap;html=1;" parent="1" vertex="1">
          <mxGeometry x="1000" y="450" width="120" height="80" as="geometry" />
        </mxCell>
        <mxCell id="DHTgpNYXtuhxtt-2HGvQ-8" value="" style="endArrow=none;html=1;rounded=0;exitX=0.5;exitY=1;exitDx=0;exitDy=0;entryX=0.692;entryY=0.05;entryDx=0;entryDy=0;entryPerimeter=0;" parent="1" source="DHTgpNYXtuhxtt-2HGvQ-1" target="DHTgpNYXtuhxtt-2HGvQ-9" edge="1">
          <mxGeometry width="50" height="50" relative="1" as="geometry">
            <mxPoint x="990" y="880" as="sourcePoint" />
            <mxPoint x="890" y="790" as="targetPoint" />
          </mxGeometry>
        </mxCell>
        <mxCell id="DHTgpNYXtuhxtt-2HGvQ-9" value="&lt;font style=&quot;font-size: 18px;&quot;&gt;OptionTwo&lt;/font&gt;" style="ellipse;whiteSpace=wrap;html=1;direction=east;" parent="1" vertex="1">
          <mxGeometry x="840" y="800" width="120" height="80" as="geometry" />
        </mxCell>
        <mxCell id="DHTgpNYXtuhxtt-2HGvQ-10" value="" style="endArrow=none;html=1;rounded=0;entryX=0.5;entryY=0;entryDx=0;entryDy=0;exitX=0.5;exitY=1;exitDx=0;exitDy=0;" parent="1" source="DHTgpNYXtuhxtt-2HGvQ-1" target="DHTgpNYXtuhxtt-2HGvQ-11" edge="1">
          <mxGeometry width="50" height="50" relative="1" as="geometry">
            <mxPoint x="1000" y="840" as="sourcePoint" />
            <mxPoint x="1050" y="790" as="targetPoint" />
          </mxGeometry>
        </mxCell>
        <mxCell id="DHTgpNYXtuhxtt-2HGvQ-11" value="&lt;font style=&quot;font-size: 18px;&quot;&gt;OptionThree&lt;/font&gt;" style="ellipse;whiteSpace=wrap;html=1;direction=east;" parent="1" vertex="1">
          <mxGeometry x="1000" y="820" width="120" height="80" as="geometry" />
        </mxCell>
        <mxCell id="DHTgpNYXtuhxtt-2HGvQ-12" value="" style="endArrow=none;html=1;rounded=0;exitX=0.5;exitY=1;exitDx=0;exitDy=0;entryX=0;entryY=0;entryDx=0;entryDy=0;" parent="1" source="DHTgpNYXtuhxtt-2HGvQ-1" target="DHTgpNYXtuhxtt-2HGvQ-13" edge="1">
          <mxGeometry width="50" height="50" relative="1" as="geometry">
            <mxPoint x="990" y="880" as="sourcePoint" />
            <mxPoint x="1150" y="830" as="targetPoint" />
          </mxGeometry>
        </mxCell>
        <mxCell id="DHTgpNYXtuhxtt-2HGvQ-13" value="&lt;font style=&quot;font-size: 18px;&quot;&gt;OptionFour&lt;/font&gt;" style="ellipse;whiteSpace=wrap;html=1;direction=east;" parent="1" vertex="1">
          <mxGeometry x="1130" y="770" width="120" height="80" as="geometry" />
        </mxCell>
        <mxCell id="DHTgpNYXtuhxtt-2HGvQ-15" value="" style="endArrow=none;html=1;rounded=0;exitX=0.5;exitY=1;exitDx=0;exitDy=0;entryX=1;entryY=0;entryDx=0;entryDy=0;" parent="1" source="DHTgpNYXtuhxtt-2HGvQ-1" target="DHTgpNYXtuhxtt-2HGvQ-16" edge="1">
          <mxGeometry width="50" height="50" relative="1" as="geometry">
            <mxPoint x="990" y="700" as="sourcePoint" />
            <mxPoint x="820" y="730" as="targetPoint" />
          </mxGeometry>
        </mxCell>
        <mxCell id="DHTgpNYXtuhxtt-2HGvQ-16" value="&lt;font style=&quot;font-size: 18px;&quot;&gt;OptionOne&lt;/font&gt;" style="ellipse;whiteSpace=wrap;html=1;direction=east;" parent="1" vertex="1">
          <mxGeometry x="710" y="740" width="120" height="80" as="geometry" />
        </mxCell>
        <mxCell id="DHTgpNYXtuhxtt-2HGvQ-17" value="&lt;font style=&quot;font-size: 20px;&quot;&gt;Users&lt;/font&gt;" style="rounded=0;whiteSpace=wrap;html=1;" parent="1" vertex="1">
          <mxGeometry x="310" y="30" width="180" height="90" as="geometry" />
        </mxCell>
        <mxCell id="DHTgpNYXtuhxtt-2HGvQ-18" value="" style="endArrow=none;html=1;rounded=0;exitX=0.5;exitY=0;exitDx=0;exitDy=0;" parent="1" source="DHTgpNYXtuhxtt-2HGvQ-17" edge="1">
          <mxGeometry width="50" height="50" relative="1" as="geometry">
            <mxPoint x="420" y="90" as="sourcePoint" />
            <mxPoint x="300" y="-60" as="targetPoint" />
          </mxGeometry>
        </mxCell>
        <mxCell id="DHTgpNYXtuhxtt-2HGvQ-19" value="&lt;font style=&quot;font-size: 18px;&quot;&gt;&lt;u&gt;ID&lt;/u&gt;&lt;/font&gt;" style="ellipse;whiteSpace=wrap;html=1;" parent="1" vertex="1">
          <mxGeometry x="230" y="-140" width="120" height="80" as="geometry" />
        </mxCell>
        <mxCell id="DHTgpNYXtuhxtt-2HGvQ-20" value="" style="endArrow=none;html=1;rounded=0;exitX=0.5;exitY=0;exitDx=0;exitDy=0;entryX=0.5;entryY=1;entryDx=0;entryDy=0;" parent="1" source="DHTgpNYXtuhxtt-2HGvQ-17" target="DHTgpNYXtuhxtt-2HGvQ-21" edge="1">
          <mxGeometry width="50" height="50" relative="1" as="geometry">
            <mxPoint x="473" y="10" as="sourcePoint" />
            <mxPoint x="460" y="-60" as="targetPoint" />
          </mxGeometry>
        </mxCell>
        <mxCell id="DHTgpNYXtuhxtt-2HGvQ-21" value="&lt;font style=&quot;font-size: 18px;&quot;&gt;UserName&lt;/font&gt;" style="ellipse;whiteSpace=wrap;html=1;" parent="1" vertex="1">
          <mxGeometry x="385" y="-140" width="120" height="80" as="geometry" />
        </mxCell>
        <mxCell id="DHTgpNYXtuhxtt-2HGvQ-22" value="" style="endArrow=none;html=1;rounded=0;exitX=0.5;exitY=0;exitDx=0;exitDy=0;entryX=0;entryY=1;entryDx=0;entryDy=0;" parent="1" source="DHTgpNYXtuhxtt-2HGvQ-17" target="DHTgpNYXtuhxtt-2HGvQ-23" edge="1">
          <mxGeometry width="50" height="50" relative="1" as="geometry">
            <mxPoint x="410" y="40" as="sourcePoint" />
            <mxPoint x="560" y="-20" as="targetPoint" />
          </mxGeometry>
        </mxCell>
        <mxCell id="DHTgpNYXtuhxtt-2HGvQ-23" value="&lt;font style=&quot;font-size: 18px;&quot;&gt;Email&lt;/font&gt;" style="ellipse;whiteSpace=wrap;html=1;" parent="1" vertex="1">
          <mxGeometry x="540" y="-110" width="120" height="80" as="geometry" />
        </mxCell>
        <mxCell id="DHTgpNYXtuhxtt-2HGvQ-24" value="" style="endArrow=none;html=1;rounded=0;exitX=0.5;exitY=1;exitDx=0;exitDy=0;entryX=0.692;entryY=0.05;entryDx=0;entryDy=0;entryPerimeter=0;" parent="1" source="DHTgpNYXtuhxtt-2HGvQ-17" target="DHTgpNYXtuhxtt-2HGvQ-25" edge="1">
          <mxGeometry width="50" height="50" relative="1" as="geometry">
            <mxPoint x="400" y="300" as="sourcePoint" />
            <mxPoint x="300" y="210" as="targetPoint" />
          </mxGeometry>
        </mxCell>
        <mxCell id="DHTgpNYXtuhxtt-2HGvQ-25" value="&lt;font style=&quot;font-size: 18px;&quot;&gt;Gender&lt;/font&gt;" style="ellipse;whiteSpace=wrap;html=1;direction=east;" parent="1" vertex="1">
          <mxGeometry x="250" y="220" width="120" height="80" as="geometry" />
        </mxCell>
        <mxCell id="DHTgpNYXtuhxtt-2HGvQ-26" value="" style="endArrow=none;html=1;rounded=0;entryX=0.5;entryY=0;entryDx=0;entryDy=0;exitX=0.5;exitY=1;exitDx=0;exitDy=0;" parent="1" source="DHTgpNYXtuhxtt-2HGvQ-17" target="DHTgpNYXtuhxtt-2HGvQ-27" edge="1">
          <mxGeometry width="50" height="50" relative="1" as="geometry">
            <mxPoint x="410" y="260" as="sourcePoint" />
            <mxPoint x="460" y="210" as="targetPoint" />
          </mxGeometry>
        </mxCell>
        <mxCell id="DHTgpNYXtuhxtt-2HGvQ-27" value="&lt;font style=&quot;font-size: 18px;&quot;&gt;PP&lt;/font&gt;" style="ellipse;whiteSpace=wrap;html=1;direction=east;" parent="1" vertex="1">
          <mxGeometry x="410" y="240" width="120" height="80" as="geometry" />
        </mxCell>
        <mxCell id="DHTgpNYXtuhxtt-2HGvQ-28" value="" style="endArrow=none;html=1;rounded=0;exitX=0.5;exitY=1;exitDx=0;exitDy=0;entryX=0;entryY=0;entryDx=0;entryDy=0;" parent="1" source="DHTgpNYXtuhxtt-2HGvQ-17" target="DHTgpNYXtuhxtt-2HGvQ-29" edge="1">
          <mxGeometry width="50" height="50" relative="1" as="geometry">
            <mxPoint x="400" y="300" as="sourcePoint" />
            <mxPoint x="560" y="250" as="targetPoint" />
          </mxGeometry>
        </mxCell>
        <mxCell id="DHTgpNYXtuhxtt-2HGvQ-29" value="&lt;font style=&quot;font-size: 18px;&quot;&gt;DOB&lt;/font&gt;" style="ellipse;whiteSpace=wrap;html=1;direction=east;" parent="1" vertex="1">
          <mxGeometry x="540" y="190" width="120" height="80" as="geometry" />
        </mxCell>
        <mxCell id="DHTgpNYXtuhxtt-2HGvQ-30" value="" style="endArrow=none;html=1;rounded=0;exitX=0.5;exitY=1;exitDx=0;exitDy=0;entryX=1;entryY=0;entryDx=0;entryDy=0;" parent="1" source="DHTgpNYXtuhxtt-2HGvQ-17" target="DHTgpNYXtuhxtt-2HGvQ-31" edge="1">
          <mxGeometry width="50" height="50" relative="1" as="geometry">
            <mxPoint x="400" y="120" as="sourcePoint" />
            <mxPoint x="230" y="150" as="targetPoint" />
          </mxGeometry>
        </mxCell>
        <mxCell id="DHTgpNYXtuhxtt-2HGvQ-31" value="&lt;font style=&quot;font-size: 18px;&quot;&gt;Password&lt;/font&gt;" style="ellipse;whiteSpace=wrap;html=1;direction=east;" parent="1" vertex="1">
          <mxGeometry x="120" y="160" width="120" height="80" as="geometry" />
        </mxCell>
        <mxCell id="DHTgpNYXtuhxtt-2HGvQ-32" value="&lt;font style=&quot;font-size: 20px;&quot;&gt;Result&lt;/font&gt;" style="rounded=0;whiteSpace=wrap;html=1;" parent="1" vertex="1">
          <mxGeometry x="1465" y="30" width="180" height="90" as="geometry" />
        </mxCell>
        <mxCell id="DHTgpNYXtuhxtt-2HGvQ-33" value="" style="endArrow=none;html=1;rounded=0;exitX=0.5;exitY=0;exitDx=0;exitDy=0;" parent="1" source="DHTgpNYXtuhxtt-2HGvQ-32" edge="1">
          <mxGeometry width="50" height="50" relative="1" as="geometry">
            <mxPoint x="1575" y="90" as="sourcePoint" />
            <mxPoint x="1455" y="-60" as="targetPoint" />
          </mxGeometry>
        </mxCell>
        <mxCell id="DHTgpNYXtuhxtt-2HGvQ-34" value="&lt;font style=&quot;font-size: 18px;&quot;&gt;ID&lt;/font&gt;" style="ellipse;whiteSpace=wrap;html=1;" parent="1" vertex="1">
          <mxGeometry x="1380" y="-140" width="120" height="80" as="geometry" />
        </mxCell>
        <mxCell id="DHTgpNYXtuhxtt-2HGvQ-35" value="" style="endArrow=none;html=1;rounded=0;exitX=0.5;exitY=0;exitDx=0;exitDy=0;entryX=0.31;entryY=0.97;entryDx=0;entryDy=0;entryPerimeter=0;" parent="1" source="DHTgpNYXtuhxtt-2HGvQ-32" target="DHTgpNYXtuhxtt-2HGvQ-36" edge="1">
          <mxGeometry width="50" height="50" relative="1" as="geometry">
            <mxPoint x="1628" y="10" as="sourcePoint" />
            <mxPoint x="1615" y="-60" as="targetPoint" />
          </mxGeometry>
        </mxCell>
        <mxCell id="DHTgpNYXtuhxtt-2HGvQ-36" value="&lt;font style=&quot;font-size: 18px;&quot;&gt;UserID&lt;/font&gt;" style="ellipse;whiteSpace=wrap;html=1;" parent="1" vertex="1">
          <mxGeometry x="1640" y="-140" width="120" height="80" as="geometry" />
        </mxCell>
        <mxCell id="DHTgpNYXtuhxtt-2HGvQ-37" value="" style="endArrow=none;html=1;rounded=0;exitX=0.5;exitY=1;exitDx=0;exitDy=0;entryX=0.5;entryY=0;entryDx=0;entryDy=0;" parent="1" source="DHTgpNYXtuhxtt-2HGvQ-32" target="DHTgpNYXtuhxtt-2HGvQ-38" edge="1">
          <mxGeometry width="50" height="50" relative="1" as="geometry">
            <mxPoint x="1565" y="40" as="sourcePoint" />
            <mxPoint x="1715" y="-20" as="targetPoint" />
          </mxGeometry>
        </mxCell>
        <mxCell id="DHTgpNYXtuhxtt-2HGvQ-38" value="&lt;span style=&quot;font-size: 18px;&quot;&gt;QuestionID&lt;/span&gt;" style="ellipse;whiteSpace=wrap;html=1;" parent="1" vertex="1">
          <mxGeometry x="1645" y="210" width="120" height="80" as="geometry" />
        </mxCell>
        <mxCell id="DHTgpNYXtuhxtt-2HGvQ-45" value="" style="endArrow=none;html=1;rounded=0;exitX=0.5;exitY=1;exitDx=0;exitDy=0;entryX=0.681;entryY=0.025;entryDx=0;entryDy=0;entryPerimeter=0;" parent="1" source="DHTgpNYXtuhxtt-2HGvQ-32" target="DHTgpNYXtuhxtt-2HGvQ-46" edge="1">
          <mxGeometry width="50" height="50" relative="1" as="geometry">
            <mxPoint x="1555" y="120" as="sourcePoint" />
            <mxPoint x="1385" y="150" as="targetPoint" />
          </mxGeometry>
        </mxCell>
        <mxCell id="DHTgpNYXtuhxtt-2HGvQ-46" value="&lt;span style=&quot;font-size: 18px;&quot;&gt;UserAnswer&lt;/span&gt;" style="ellipse;whiteSpace=wrap;html=1;direction=east;" parent="1" vertex="1">
          <mxGeometry x="1350" y="210" width="120" height="80" as="geometry" />
        </mxCell>
        <mxCell id="DHTgpNYXtuhxtt-2HGvQ-47" value="" style="endArrow=none;html=1;rounded=0;exitX=1;exitY=0.5;exitDx=0;exitDy=0;entryX=0;entryY=0.5;entryDx=0;entryDy=0;" parent="1" source="DHTgpNYXtuhxtt-2HGvQ-17" target="DHTgpNYXtuhxtt-2HGvQ-32" edge="1">
          <mxGeometry width="50" height="50" relative="1" as="geometry">
            <mxPoint x="880" y="210" as="sourcePoint" />
            <mxPoint x="930" y="160" as="targetPoint" />
          </mxGeometry>
        </mxCell>
        <mxCell id="DHTgpNYXtuhxtt-2HGvQ-54" value="1" style="edgeLabel;html=1;align=center;verticalAlign=middle;resizable=0;points=[];" parent="DHTgpNYXtuhxtt-2HGvQ-47" vertex="1" connectable="0">
          <mxGeometry x="-0.9821" relative="1" as="geometry">
            <mxPoint as="offset" />
          </mxGeometry>
        </mxCell>
        <mxCell id="DHTgpNYXtuhxtt-2HGvQ-55" value="M" style="edgeLabel;html=1;align=center;verticalAlign=middle;resizable=0;points=[];" parent="DHTgpNYXtuhxtt-2HGvQ-47" vertex="1" connectable="0">
          <mxGeometry x="0.9732" relative="1" as="geometry">
            <mxPoint as="offset" />
          </mxGeometry>
        </mxCell>
        <mxCell id="DHTgpNYXtuhxtt-2HGvQ-48" value="&lt;font style=&quot;font-size: 30px;&quot;&gt;Has&lt;/font&gt;" style="rhombus;whiteSpace=wrap;html=1;" parent="1" vertex="1">
          <mxGeometry x="850" y="-45" width="240" height="240" as="geometry" />
        </mxCell>
        <mxCell id="DHTgpNYXtuhxtt-2HGvQ-51" value="" style="endArrow=none;html=1;rounded=0;entryX=0;entryY=1;entryDx=0;entryDy=0;exitX=0.5;exitY=0;exitDx=0;exitDy=0;" parent="1" source="DHTgpNYXtuhxtt-2HGvQ-1" target="DHTgpNYXtuhxtt-2HGvQ-52" edge="1">
          <mxGeometry width="50" height="50" relative="1" as="geometry">
            <mxPoint x="990" y="610" as="sourcePoint" />
            <mxPoint x="1270" y="620" as="targetPoint" />
          </mxGeometry>
        </mxCell>
        <mxCell id="DHTgpNYXtuhxtt-2HGvQ-52" value="&lt;font style=&quot;font-size: 18px;&quot;&gt;Programme&lt;/font&gt;" style="ellipse;whiteSpace=wrap;html=1;" parent="1" vertex="1">
          <mxGeometry x="1130" y="490" width="120" height="80" as="geometry" />
        </mxCell>
      </root>
    </mxGraphModel>
  </diagram>
</mxfile>
